<!DOCTYPE svg PUBLIC "-//W3C//DTD SVG 1.1//EN" "http://www.w3.org/Graphics/SVG/1.1/DTD/svg11.dtd">
<!-- Uploaded to: SVG Repo, www.svgrepo.com, Transformed by: SVG Repo Mixer Tools -->
<svg version="1.1" id="Layer_1" xmlns="http://www.w3.org/2000/svg" xmlns:xlink="http://www.w3.org/1999/xlink" viewBox="0 0 512 512" xml:space="preserve" width="800px" height="800px" fill="#000000">
<g id="SVGRepo_bgCarrier" stroke-width="0"/>
<g id="SVGRepo_tracerCarrier" stroke-linecap="round" stroke-linejoin="round"/>
<g id="SVGRepo_iconCarrier"> <g> <rect x="273.78" y="384.763" style="fill:#68aef4;" width="16.596" height="49.786"/> <path style="fill:#68aef4;" d="M454.192,334.927L121.694,2.43c-3.241-3.24-8.495-3.24-11.735,0c-3.241,3.242-3.241,8.495,0,11.736 l5.986,5.986c-82.625,88.826-80.719,228.308,5.749,314.777c44.217,44.216,102.299,66.325,160.381,66.325 c55.501,0,110.991-20.203,154.395-60.576l5.986,5.986c1.62,1.62,3.744,2.43,5.867,2.43s4.247-0.81,5.867-2.43 C457.433,343.421,457.433,338.168,454.192,334.927z M133.43,323.192c-79.998-79.998-81.901-208.951-5.741-291.298l297.039,297.039 C342.381,405.092,213.427,403.191,133.43,323.192z"/> </g> <polygon style="fill:#95341D;" points="298.671,426.254 282.075,426.254 271.011,481.574 317.112,481.574 "/> <polygon style="fill:#AB5D4A;" points="265.479,426.254 247.039,481.574 282.075,481.574 282.075,426.254 "/> <path style="fill:#95341D;" d="M359.524,459.446h-33.192l44.256,44.256h33.192C403.78,479.26,383.965,459.446,359.524,459.446z"/> <path style="fill:#AB5D4A;" d="M326.332,459.446H204.627c-24.442,0-44.256,19.815-44.256,44.256h210.217 C370.588,479.26,350.773,459.446,326.332,459.446z"/> <path style="fill:#68aef4;" d="M393.005,40.146L291.761,0.566c-37.31-2.073-75.153,7.792-107.322,29.604 c0,0,241.581,241.659,242.003,242.003c45.963-67.791,38.914-160.788-21.147-220.848C401.337,47.366,397.229,43.636,393.005,40.146z"/> <path style="fill:#7CC8EF;" d="M274.275,18.052c-31.701-5.07-62.831-0.759-88.835,13.402l-47.731,45.462 c-13.926,20.528-22.986,43.373-27.171,66.914l30.308,132.827c5.344,7.393,11.352,14.45,18.01,21.108 c6.063,6.063,12.47,11.594,19.152,16.571l98.216,34.361c36.059,1.213,72.414-8.715,103.489-29.777 c-0.008-0.008,45.454-47.739,45.454-47.739c30.957-56.822,14.826-138.218-43.342-196.385L274.275,18.052z"/> <path style="fill:#2c6543;" d="M291.761,0.551c0,0.001-0.033,0.034-0.082,0.084c-3.203-0.178-6.426-0.278-9.673-0.278 c-0.599,0-1.195,0.017-1.792,0.023l-16.422,16.422l118.034,57.994l11.18-11.18c6.486-6.486,6.478-16.992,0-23.47 C363.526,15.752,327.889,2.554,291.761,0.551z"/> <path style="fill:#248e2d;" d="M329.017,135.427l74.323,74.323l-27.382,27.382c-8.606,8.606-22.688,8.606-31.294,0l-27.382-27.382 l-7.823,7.823c-8.645,8.645-22.649,8.645-31.294,0c-8.645-8.645-8.645-22.649,0-31.294L329.017,135.427z"/> <g> <path style="fill:#F0EBEA;" d="M425.167,271.181l-18.589,25.286c7.464-7.62,14.09-15.749,19.871-24.284 C426.02,271.829,425.605,271.493,425.167,271.181z"/> <path style="fill:#F0EBEA;" d="M160.155,50.043l25.286-18.589c-0.313-0.438-0.649-0.853-0.994-1.276 C175.904,35.953,167.775,42.579,160.155,50.043z"/> </g> <g> <path style="fill:#FFFFFF;" d="M185.44,31.454c9.749,12.987,8.707,31.52-3.113,43.342c-12.212,12.213-31.583,12.916-44.617,2.12 c6.102-9.028,13.16-17.603,21.147-25.59c0.43-0.43,0.861-0.861,1.299-1.283C167.814,42.618,176.317,36.429,185.44,31.454z"/> <path style="fill:#FFFFFF;" d="M381.824,274.294c11.821-11.821,30.355-12.862,43.342-3.113 c-4.976,9.122-11.164,17.626-18.589,25.286c-0.423,0.438-0.853,0.869-1.283,1.299c-7.988,7.988-16.562,15.045-25.582,21.154 C368.908,305.878,369.612,286.507,381.824,274.294z"/> </g> <g> <path style="fill:#248e2d;" d="M231.223,248.868l39.117,39.117l5.883,60.71c-34.681-1.15-69.073-12.604-98.216-34.361 c-0.853-6.58,1.22-13.472,6.274-18.526L231.223,248.868z"/> <path style="fill:#248e2d;" d="M352.487,135.427l-62.588,62.588c-3.241,3.241-8.494,3.241-11.736,0s-3.241-8.495,0-11.736 l56.72-56.72l-23.47-23.47c-3.241-3.241-3.241-8.495,0-11.736c3.241-3.241,8.494-3.241,11.736,0l29.337,29.339 C355.728,126.933,355.728,132.187,352.487,135.427z"/> <path style="fill:#248e2d;" d="M415.074,174.545c-3.241,3.241-8.494,3.241-11.736,0l-7.823-7.823 c-3.241-3.241-3.241-8.495,0-11.736c3.241-3.241,8.494-3.241,11.736,0l7.823,7.823C418.315,166.05,418.315,171.305,415.074,174.545 z"/> <path style="fill:#248e2d;" d="M379.868,115.869c-3.241,3.241-8.494,3.241-11.736,0L340.75,88.487l-82.146,82.146 c-3.241,3.241-8.494,3.241-11.736,0s-3.241-8.495,0-11.736l88.014-88.015c3.241-3.241,8.494-3.241,11.736,0l33.25,33.25 C383.11,107.374,383.109,112.629,379.868,115.869z"/> <path style="fill:#248e2d;" d="M205.797,129.56c-3.241,3.241-8.494,3.241-11.736,0l-7.823-7.823c-3.241-3.241-3.241-8.495,0-11.736 s8.494-3.241,11.736,0l7.823,7.823C209.037,121.066,209.037,126.319,205.797,129.56z"/> <path style="fill:#248e2d;" d="M108.966,153.994l0.071,0.071c-5.006,42.474,5.586,86.436,31.81,122.593l45.391-45.391l1.956,1.956 c3.241,3.241,8.495,3.241,11.736,0s3.241-8.494,0-11.736l-87.416-87.416C110.946,140.65,109.759,147.302,108.966,153.994z"/> <path style="fill:#248e2d;" d="M381.824,74.796c-31.56-31.56-69.95-50.735-107.549-56.743l-0.076,0.076 c-3.477-0.553-6.949-0.998-10.408-1.328l-32.567,32.567c-3.241,3.241-3.241,8.494,0,11.736c3.241,3.242,8.495,3.241,11.736,0 l5.867-5.867l21.515,21.515l-7.823,7.823c-6.478,6.478-6.478,16.992,0,23.47l-23.47,23.47l23.47,23.47l78.235-78.235l19.559,19.559 L381.824,74.796z"/> </g> <path style="fill:#792A18;" d="M406.546,495.404h-35.958l-11.064,8.298L370.588,512h35.958c4.583,0,8.298-3.714,8.298-8.298 C414.844,499.118,411.129,495.404,406.546,495.404z"/> <path style="fill:#95341D;" d="M157.605,495.404c-4.583,0-8.298,3.714-8.298,8.298c0,4.584,3.715,8.298,8.298,8.298h212.983v-16.596 H157.605z"/> </g>
</svg>