<!DOCTYPE svg PUBLIC "-//W3C//DTD SVG 1.1//EN" "http://www.w3.org/Graphics/SVG/1.1/DTD/svg11.dtd">
<!-- Uploaded to: SVG Repo, www.svgrepo.com, Transformed by: SVG Repo Mixer Tools -->
<svg height="800px" width="800px" version="1.1" id="Layer_1" xmlns="http://www.w3.org/2000/svg" xmlns:xlink="http://www.w3.org/1999/xlink" viewBox="0 0 512 512" xml:space="preserve" fill="#000000">
<g id="SVGRepo_bgCarrier" stroke-width="0"/>
<g id="SVGRepo_tracerCarrier" stroke-linecap="round" stroke-linejoin="round"/>
<g id="SVGRepo_iconCarrier"> <path style="fill:#ff8000;" d="M256,512C114.839,512,0,397.161,0,256S114.839,0,256,0s256,114.839,256,256S397.161,512,256,512z"/> <path style="fill:#ff8000;" d="M512,256C512,114.839,397.161,0,256,0v512C397.161,512,512,397.161,512,256z"/> <path style="fill:#FFFFFF;" d="M356.196,339.496c-9.208,0-16.699-7.491-16.699-16.699V172.504h16.699 c9.225,0,16.699-7.475,16.699-16.699c0-9.225-7.475-16.699-16.699-16.699H256H155.804c-9.225,0-16.699,7.475-16.699,16.699 c0,9.225,7.475,16.699,16.699,16.699h16.699v183.692c0,9.225,7.475,16.699,16.699,16.699c9.225,0,16.699-7.475,16.699-16.699 V172.504H256h50.098v150.294c0,27.625,22.473,50.098,50.098,50.098c9.225,0,16.699-7.475,16.699-16.699 C372.895,346.971,365.42,339.496,356.196,339.496z"/> <path style="fill:#ffffff;" d="M356.196,339.496c-9.208,0-16.699-7.491-16.699-16.699V172.504h16.699 c9.225,0,16.699-7.475,16.699-16.699c0-9.225-7.475-16.699-16.699-16.699H256v33.399h50.098v150.294 c0,27.625,22.473,50.098,50.098,50.098c9.225,0,16.699-7.475,16.699-16.699C372.895,346.971,365.42,339.496,356.196,339.496z"/> </g>
</svg>