<?xml version="1.0" encoding="utf-8"?><!-- Uploaded to: SVG Repo, www.svgrepo.com, Generator: SVG Repo Mixer Tools -->
<svg fill="#000000" width="800px" height="800px" viewBox="0 0 24 24" id="chemistry-2" data-name="Flat Color" xmlns="http://www.w3.org/2000/svg" class="icon flat-color"><path id="primary" d="M21,20H6V8h7a1,1,0,0,0,0-2H6V3A1,1,0,0,0,4,3V6H3A1,1,0,0,0,3,8H4V20a2,2,0,0,0,2,2H21a1,1,0,0,0,0-2Z" style="fill: rgb(0, 0, 0);"></path><path id="secondary" d="M18,9V5a1,1,0,0,0,0-2H12a1,1,0,0,0,0,2V9a5,5,0,1,0,6,0Z" style="fill: rgb(44, 169, 188);"></path></svg>